<?xml version="1.0"?>
<svg xmlns="http://www.w3.org/2000/svg" xmlns:xlink="http://www.w3.org/1999/xlink" xmlns:svgjs="http://svgjs.com/svgjs" version="1.1" width="512" height="512" x="0" y="0" viewBox="0 0 512 512" style="enable-background:new 0 0 512 512" xml:space="preserve" class=""><g><g xmlns="http://www.w3.org/2000/svg"><g><path d="m497 46h-482c-8.284 0-15 6.716-15 15v120c0 8.284 6.716 15 15 15h482c8.284 0 15-6.716 15-15v-120c0-8.284-6.716-15-15-15zm-15 120h-452v-90h452z" fill="#0d4dd8" data-original="#000000" style="" class=""/><circle cx="256" cy="121" r="15" fill="#0d4dd8" data-original="#000000" style="" class=""/><circle cx="316" cy="121" r="15" fill="#0d4dd8" data-original="#000000" style="" class=""/><circle cx="376" cy="121" r="15" fill="#0d4dd8" data-original="#000000" style="" class=""/><circle cx="196" cy="121" r="15" fill="#0d4dd8" data-original="#000000" style="" class=""/><circle cx="136" cy="121" r="15" fill="#0d4dd8" data-original="#000000" style="" class=""/></g><g><path d="m349.405 226c-23.135 0-45.599 6.602-64.963 19.093-16.117 10.395-29.448 24.418-38.977 40.907h-176.465c-4.816 0-9.34 2.314-12.16 6.218l-32.5 45c-3.787 5.242-3.787 12.322 0 17.564l32.5 45c2.82 3.904 7.344 6.218 12.16 6.218h30.241c5 0 9.672-2.492 12.457-6.645l8.588-12.806 8.589 12.806c2.785 4.152 7.457 6.645 12.457 6.645h37.908c5.001 0 9.672-2.492 12.458-6.645l8.588-12.806 8.589 12.806c2.785 4.152 7.457 6.645 12.458 6.645h24.132c9.528 16.489 22.86 30.512 38.977 40.907 19.364 12.49 41.828 19.093 64.963 19.093 66.168 0 120-53.832 120-120s-53.832-120-120-120zm0 210c-34.568 0-66.496-20.19-81.341-51.436-2.485-5.23-7.758-8.564-13.549-8.564h-25.181l-16.59-24.735c-2.785-4.152-7.457-6.645-12.458-6.645-5 0-9.672 2.492-12.457 6.645l-16.589 24.735h-21.906l-16.59-24.735c-2.785-4.152-7.457-6.645-12.457-6.645-5.001 0-9.672 2.492-12.458 6.645l-16.589 24.735h-14.57l-21.667-30 21.667-30h177.846c5.791 0 11.064-3.333 13.549-8.564 14.844-31.246 46.772-51.436 81.34-51.436 49.626 0 90 40.374 90 90s-40.374 90-90 90z" fill="#0d4dd8" data-original="#000000" style="" class=""/><path d="m379 316c-8.284 0-15 6.716-15 15v30c0 8.284 6.716 15 15 15s15-6.716 15-15v-30c0-8.284-6.716-15-15-15z" fill="#0d4dd8" data-original="#000000" style="" class=""/></g></g></g></svg>
